<svg width="99" height="87" viewBox="0 0 99 87" fill="none" xmlns="http://www.w3.org/2000/svg">
<path d="M76.1244 20.193C63.9565 20.193 54.0926 30.0568 54.0926 42.2248C54.0926 54.3928 63.9565 64.2566 76.1243 64.2566C88.2922 64.2566 98.1561 54.3928 98.1561 42.2248C98.1561 30.0568 88.2922 20.193 76.1244 20.193Z" fill="white"/>
<mask id="mask0_4085_1736" style="mask-type:luminance" maskUnits="userSpaceOnUse" x="0" y="0" width="53" height="87">
<path d="M4.19617e-05 86.5146L52.7155 86.5146L52.7155 8.58107e-06L4.9525e-05 3.97254e-06L4.19617e-05 86.5146Z" fill="white"/>
</mask>
<g mask="url(#mask0_4085_1736)">
<path d="M42.6866 0.453015C18.9215 0.453013 -0.34421 19.7187 -0.344212 43.4838C-0.344214 67.2489 18.9215 86.5146 42.6866 86.5146C66.4518 86.5146 85.7174 67.2489 85.7174 43.4838C85.7174 19.7187 66.4518 0.453017 42.6866 0.453015Z" fill="white"/>
</g>
</svg>
